<svg xmlns="http://www.w3.org/2000/svg" width="175"  viewBox="0 0 1993 618" version="1.1"><path d="M 284.500 15.437 C 282.693 16.640, 230.120 46.999, 82.750 131.937 L 32 161.188 32.022 308.844 L 32.043 456.500 68.772 477.648 C 88.972 489.279, 118.453 506.267, 134.284 515.398 C 150.116 524.529, 163.510 532, 164.049 532 C 164.674 532, 164.933 521.043, 164.765 501.804 L 164.500 471.609 124.746 448.653 L 84.992 425.698 85.246 308.655 L 85.500 191.613 138 161.321 C 166.875 144.661, 212.438 118.350, 239.250 102.854 L 288 74.678 288 44.339 C 288 27.653, 287.663 14.024, 287.250 14.052 C 286.837 14.081, 285.600 14.704, 284.500 15.437 M 567 111.594 C 558.940 115.085, 554.654 121.649, 554.654 130.500 C 554.654 137.141, 556.257 141.048, 560.661 145.136 C 569.971 153.779, 583.444 152.709, 591.413 142.694 C 593.969 139.481, 594.501 137.830, 594.824 132.107 C 595.243 124.694, 593.419 119.575, 588.834 115.298 C 583.380 110.211, 573.904 108.604, 567 111.594 M 217.485 146.131 C 185.043 164.864, 148.150 186.170, 135.500 193.478 L 112.500 206.765 112.245 308.755 L 111.991 410.745 137.943 425.373 C 152.217 433.418, 164.142 440, 164.443 440 C 164.744 440, 165.105 394.438, 165.245 338.750 L 165.500 237.500 193.500 221.294 C 208.900 212.380, 221.875 205.068, 222.334 205.044 C 223.252 204.996, 222.123 389.546, 221.123 402.723 L 220.500 410.945 204.609 401.973 C 195.869 397.038, 188.557 393, 188.359 393 C 188.162 393, 188.001 427.538, 188.003 469.750 L 188.007 546.500 196.753 551.500 C 201.564 554.250, 223.950 567.154, 246.500 580.176 L 287.500 603.853 287.765 573.245 C 287.943 552.605, 287.687 542.451, 286.978 542.068 C 286.400 541.756, 273.348 534.300, 257.975 525.500 L 230.024 509.500 230.012 493.643 C 230.001 479.154, 230.146 477.842, 231.693 478.436 C 232.623 478.793, 242.124 484.040, 252.805 490.097 C 263.486 496.154, 272.459 500.874, 272.746 500.587 C 273.495 499.839, 277.810 113.643, 277.080 112.785 C 276.745 112.392, 249.927 127.398, 217.485 146.131 M 567.450 114.407 C 563.413 116.165, 559.339 121.137, 557.842 126.132 C 555.596 133.631, 559.741 142.692, 567.200 146.589 C 571.515 148.843, 580.104 148.404, 584.078 145.726 C 599.150 135.569, 592.743 112.878, 574.849 113.039 C 572.457 113.061, 569.128 113.676, 567.450 114.407 M 568 129.876 C 568 139.097, 568.257 141, 569.500 141 C 570.615 141, 571 139.825, 571 136.427 C 571 132.623, 571.292 131.910, 572.737 132.188 C 573.692 132.372, 575.525 134.430, 576.812 136.761 C 578.364 139.576, 579.829 141, 581.170 141 C 583.121 141, 583.104 140.854, 580.684 136.723 L 578.178 132.447 580.589 130.299 C 583.470 127.733, 583.657 125.033, 581.166 121.957 C 579.766 120.228, 577.991 119.581, 573.666 119.222 L 568 118.752 568 129.876 M 571 125.333 C 571 129.113, 572.188 129.994, 576 129.037 C 577.961 128.545, 578.500 127.773, 578.500 125.455 C 578.500 122.762, 578.167 122.472, 574.750 122.190 C 571.081 121.886, 571 121.954, 571 125.333 M 642 148.989 C 629.222 151.290, 619.814 157.463, 615.655 166.276 C 611.320 175.461, 610.832 181.009, 611.194 217 C 611.517 249.077, 611.628 250.740, 613.799 256.147 C 616.655 263.259, 622.352 269.785, 628.741 273.262 C 637.660 278.117, 643.435 278.755, 684.500 279.429 C 725.021 280.094, 735.890 279.469, 743.668 276.029 L 748.318 273.972 754.479 277.986 C 757.867 280.194, 761.058 281.991, 761.570 281.981 C 763.031 281.951, 778.269 258.245, 777.563 257.101 C 777.215 256.539, 774.247 254.196, 770.965 251.895 L 765 247.710 764.992 217.105 C 764.988 200.272, 764.526 183.671, 763.965 180.213 C 761.327 163.960, 754.716 154.990, 742.316 150.840 C 735.667 148.615, 734.411 148.554, 691 148.369 C 666.525 148.265, 644.475 148.544, 642 148.989 M 785.484 171.682 C 784.446 204.899, 785.357 241.891, 787.396 249.280 C 791.726 264.979, 799.948 273.137, 816 277.666 C 821.823 279.309, 826.768 279.500, 863.500 279.500 C 900.330 279.500, 905.245 279.309, 911.826 277.624 C 924.263 274.438, 931.998 267.737, 936.250 256.467 C 938.461 250.604, 938.505 249.608, 938.793 199.250 L 939.085 148 923.543 148 L 908 148 908 189.951 C 908 216.095, 907.595 233.790, 906.925 236.914 C 905.586 243.158, 902.537 247.779, 897.997 250.446 C 894.721 252.370, 892.650 252.519, 865.198 252.806 C 832.651 253.146, 827.696 252.500, 822.858 247.287 C 817.685 241.713, 817.589 240.777, 817.226 192.750 L 816.887 148 801.555 148 L 786.224 148 785.484 171.682 M 982.892 213.259 C 960.236 255.969, 948.667 278.754, 949.392 279.235 C 950.001 279.639, 957.925 279.969, 967 279.969 C 976.075 279.969, 983.992 279.639, 984.593 279.235 C 985.194 278.831, 989.407 271.188, 993.955 262.250 L 1002.224 246 1040.862 246.020 L 1079.500 246.040 1088.049 262.770 L 1096.598 279.500 1114.475 279.774 C 1124.308 279.924, 1132.653 279.699, 1133.020 279.274 C 1133.387 278.848, 1130.709 272.875, 1127.069 266 C 1123.428 259.125, 1112.646 238.650, 1103.108 220.500 C 1093.569 202.350, 1081.054 178.613, 1075.296 167.750 L 1064.828 148 1041.164 148.009 L 1017.500 148.017 982.892 213.259 M 1144.243 213.750 L 1144.500 279.500 1200.750 279.758 L 1257 280.017 1257 266.508 L 1257 253 1216.500 253 L 1176 253 1176 200.500 L 1176 148 1159.993 148 L 1143.986 148 1144.243 213.750 M 1283.243 213.725 L 1283.500 279.500 1299 279.500 L 1314.500 279.500 1314.500 214 L 1314.500 148.500 1298.743 148.225 L 1282.986 147.949 1283.243 213.725 M 1335 161 L 1335 174 1362.500 174 L 1390 174 1390 227.025 L 1390 280.051 1405.750 279.775 L 1421.500 279.500 1421.759 226.750 L 1422.018 174 1449.509 174 L 1477 174 1477 161 L 1477 148 1406 148 L 1335 148 1335 161 M 1482.035 148.729 C 1482.055 149.153, 1497.121 168.850, 1515.516 192.500 L 1548.961 235.500 1548.980 257.250 L 1549 279 1564.500 279 L 1580 279 1580 257.486 C 1580 242.611, 1580.367 235.386, 1581.188 234.071 C 1582.224 232.412, 1581.236 230.677, 1573.438 220.460 C 1568.522 214.021, 1554.805 195.195, 1542.957 178.626 L 1521.413 148.500 1501.707 148.229 C 1490.868 148.080, 1482.016 148.305, 1482.035 148.729 M 1602.750 155.250 C 1587.828 175.554, 1570 200.867, 1570 201.751 C 1570 203.333, 1586.881 223.500, 1588.206 223.500 C 1589.337 223.500, 1646.844 150.325, 1646.950 148.750 C 1646.977 148.338, 1638.243 148, 1627.539 148 L 1608.079 148 1602.750 155.250 M 1027.917 196.768 L 1015.334 220.500 1040.316 220.767 C 1054.056 220.915, 1065.500 220.833, 1065.747 220.587 C 1066.404 219.929, 1042.679 173.701, 1041.500 173.341 C 1040.950 173.173, 1034.838 183.715, 1027.917 196.768 M 658.849 175.352 C 652.723 177.049, 649.534 179.236, 646.503 183.817 C 642.687 189.582, 641.762 197.224, 642.180 219.500 C 642.811 253.065, 643.025 253.219, 688.489 252.768 L 715.478 252.500 696.989 241.110 C 686.820 234.845, 678.115 229.375, 677.644 228.954 C 677.174 228.533, 680.949 222.304, 686.035 215.112 L 695.281 202.036 699.890 205.390 C 702.426 207.235, 710.800 213.324, 718.500 218.923 L 732.500 229.101 732.781 210.301 C 733.089 189.715, 732.428 186.091, 727.368 180.639 C 722.025 174.881, 720.037 174.539, 690.500 174.290 C 670.924 174.126, 662.221 174.418, 658.849 175.352" stroke="none" fill="#0b1474" fill-rule="evenodd"/><path d="M 288.235 44.589 L 288.500 75.358 322.500 95.018 C 341.200 105.831, 385.975 131.672, 422 152.442 C 458.025 173.213, 488.175 190.851, 489 191.638 C 490.309 192.888, 490.543 205.588, 490.841 291.285 C 491.029 345.303, 490.868 397.692, 490.484 407.704 L 489.787 425.908 388.893 484.165 L 288 542.423 288 572.818 C 288 597.380, 288.250 603.118, 289.303 602.714 C 290.019 602.439, 325.232 582.211, 367.553 557.762 C 428.258 522.692, 521.966 468.601, 540.244 458.079 L 542.987 456.500 542.994 308.792 L 543 161.084 538.750 158.632 C 536.413 157.284, 514.025 144.377, 489 129.951 C 392.505 74.325, 294.358 17.667, 291.235 15.786 L 287.971 13.819 288.235 44.589 M 303.246 227.213 L 303.500 342.500 360.400 342.758 L 417.299 343.017 416.597 360.758 C 416.135 372.419, 415.484 378.880, 414.697 379.608 C 413.267 380.931, 361.604 410, 360.682 410 C 360.330 410, 359.920 401.113, 359.771 390.250 L 359.500 370.500 333 370.500 L 306.500 370.500 306.243 435.750 C 306.068 480.075, 306.316 501, 307.017 501 C 308.003 501, 465.723 412.519, 467.226 411.123 C 467.885 410.510, 472 311.654, 472 296.431 L 472 290 414 290 L 356 290 356 246.917 C 356 223.221, 356.360 203.983, 356.800 204.167 C 357.241 204.350, 370.499 211.925, 386.263 221 L 414.925 237.500 415.212 251.500 L 415.500 265.500 442 265.500 L 468.500 265.500 468.765 236.919 C 469.009 210.645, 468.888 208.216, 467.265 206.839 C 466.294 206.014, 458.525 201.359, 450 196.494 C 441.475 191.629, 421.900 180.369, 406.500 171.472 C 324.137 123.888, 307.302 114.184, 305.246 113.106 L 302.992 111.925 303.246 227.213 M 647.352 323.025 C 635.991 324.221, 625.931 328.250, 620.804 333.657 C 614.323 340.490, 611.245 354.001, 612.958 368.091 C 614.338 379.441, 616.257 384.643, 620.793 389.332 C 629.341 398.169, 634.127 398.990, 682 399.827 C 717.654 400.450, 720.737 400.643, 723.708 402.441 C 731.734 407.296, 731.138 422.140, 722.733 426.733 C 719.868 428.299, 715.805 428.536, 687 428.817 C 665.734 429.025, 653.236 428.761, 650.843 428.055 C 647.057 426.937, 641 421.036, 641 418.465 C 641 417.239, 638.387 417, 625 417 L 609 417 609 421.818 C 609 432.299, 613.758 442.248, 621.142 447.207 C 630.143 453.252, 631.312 453.382, 680 453.766 C 728.725 454.150, 733.707 453.772, 743.714 448.922 C 750.909 445.435, 755.127 440.804, 758.220 433 C 760.095 428.268, 760.407 425.474, 760.450 413 C 760.489 401.643, 760.119 397.409, 758.742 393.468 C 755.586 384.435, 749.793 379.172, 739.500 375.986 C 736.738 375.131, 722.280 374.555, 692.776 374.124 C 651.125 373.516, 649.999 373.447, 647.953 371.400 C 643.131 366.573, 643.456 355.739, 648.568 350.935 L 651.159 348.500 684.329 348.189 C 721.593 347.840, 723.882 348.124, 726.389 353.408 C 727.275 355.275, 728 357.522, 728 358.401 C 728 359.800, 730.005 360, 744 360 L 760 360 759.988 356.250 C 759.974 351.775, 757.925 343.686, 755.733 339.448 C 753.221 334.593, 745.818 328.450, 739.738 326.175 C 736.658 325.022, 730.406 323.612, 725.845 323.040 C 716.540 321.873, 658.390 321.862, 647.352 323.025 M 815.965 323.020 C 795.859 325.282, 785.743 334.306, 782.417 352.950 C 780.763 362.222, 780.516 407.657, 782.053 420.026 C 784.432 439.177, 793.721 449.333, 811.807 452.558 C 822.934 454.543, 897.771 454.544, 907.131 452.560 C 920.448 449.737, 927.824 443.996, 932.259 433 C 934.381 427.738, 934.491 425.956, 934.796 391.865 C 935.068 361.413, 934.877 355.312, 933.481 349.925 C 931.325 341.606, 928.987 337.262, 924.335 332.928 C 913.946 323.253, 911.281 322.797, 863 322.453 C 841.275 322.298, 820.109 322.553, 815.965 323.020 M 956.692 322.641 C 956.312 323.022, 956 352.733, 956 388.667 L 956 454 1012.500 454 L 1069 454 1069 441.011 L 1069 428.022 1028.250 427.761 L 987.500 427.500 987 375 L 986.500 322.500 971.942 322.224 C 963.936 322.073, 957.073 322.260, 956.692 322.641 M 1208.484 323.250 C 1208.235 323.938, 1207.912 345.009, 1207.766 370.074 L 1207.500 415.649 1204.839 419.668 C 1199.807 427.270, 1198.608 427.500, 1164 427.500 C 1130.241 427.500, 1128.131 427.191, 1123.150 421.518 C 1118.392 416.099, 1118 411.834, 1118 365.451 L 1118 323 1102.465 323 L 1086.930 323 1087.220 373.250 C 1087.544 429.479, 1087.463 428.786, 1094.876 438.594 C 1099.554 444.784, 1104.758 448.303, 1113.500 451.189 C 1120.391 453.464, 1121.191 453.500, 1165 453.500 C 1204.476 453.500, 1210.135 453.303, 1215.124 451.759 C 1223.414 449.192, 1229.955 444.392, 1233.690 438.134 C 1239.658 428.135, 1240 424.470, 1240 370.553 L 1240 322 1224.469 322 C 1212.952 322, 1208.820 322.323, 1208.484 323.250 M 1254 335.500 L 1254 349 1281.500 349 L 1309 349 1309 401.500 L 1309 454 1325 454 L 1341 454 1341 401.500 L 1341 349 1368.500 349 L 1396 349 1396 335.500 L 1396 322 1325 322 L 1254 322 1254 335.500 M 1415.667 322.667 C 1414.834 323.500, 1414.775 450.251, 1415.607 452.418 C 1416.124 453.766, 1418.493 454, 1431.607 454 L 1447 454 1447 388 L 1447 322 1431.667 322 C 1423.233 322, 1416.033 322.300, 1415.667 322.667 M 1506.609 322.990 C 1488.575 325.272, 1479.529 331.595, 1474.406 345.500 C 1472.782 349.909, 1472.522 354.517, 1472.205 384.500 C 1471.821 420.903, 1472.323 426.756, 1476.538 435.074 C 1480.203 442.308, 1487.909 448.597, 1496.365 451.256 C 1503.331 453.447, 1504.602 453.500, 1550 453.500 C 1596.477 453.500, 1596.503 453.499, 1603.452 451.101 C 1615.834 446.829, 1622.618 438.253, 1624.941 423.934 C 1626.230 415.987, 1626.328 363.574, 1625.068 355.880 C 1622.828 342.209, 1618.775 334.689, 1610.761 329.333 C 1602.100 323.544, 1596.182 322.846, 1552.500 322.462 C 1531.050 322.273, 1510.399 322.510, 1506.609 322.990 M 1647.459 324.250 C 1647.197 324.938, 1647.098 354.300, 1647.241 389.500 L 1647.500 453.500 1663.250 453.775 L 1679 454.051 1679 401.456 L 1679 348.861 1681.181 349.180 C 1682.742 349.409, 1694.481 364.299, 1722.431 401.500 L 1761.500 453.500 1788.750 453.766 L 1816 454.032 1816 388.516 L 1816 323 1800.509 323 L 1785.018 323 1784.759 375.250 C 1784.504 426.663, 1784.468 427.504, 1782.500 427.723 C 1781.028 427.886, 1778.675 425.509, 1773.590 418.723 C 1769.790 413.650, 1751.872 390.038, 1733.772 366.250 L 1700.863 323 1674.400 323 C 1654.151 323, 1647.825 323.294, 1647.459 324.250 M 1867.317 324.503 C 1854.499 327.289, 1847.721 332.185, 1843.093 342 C 1840.702 347.072, 1840.500 348.551, 1840.500 361 C 1840.500 377.278, 1842.077 382.986, 1848.364 389.466 C 1856.825 398.186, 1868.227 399.964, 1916 400.013 C 1943.053 400.041, 1945.856 400.205, 1949.788 401.990 C 1959.514 406.404, 1959.280 421.912, 1949.410 427 C 1946.989 428.248, 1940.707 428.500, 1912 428.500 L 1877.500 428.500 1874.137 426.101 C 1872.287 424.782, 1870.144 422.195, 1869.373 420.351 L 1867.973 417 1851.848 417 L 1835.724 417 1836.376 423.362 C 1838.172 440.898, 1846.903 450.250, 1864 452.956 C 1874.626 454.638, 1953.017 454.279, 1961.364 452.511 C 1982.130 448.111, 1990.626 432.785, 1987.954 404.544 C 1986.754 391.851, 1983.528 384.886, 1976.743 380.334 C 1969 375.138, 1965.991 374.808, 1922.500 374.375 C 1899.580 374.148, 1880.901 373.539, 1878.756 372.951 C 1876.215 372.253, 1874.528 370.987, 1873.506 369.011 C 1871.569 365.266, 1871.574 357.724, 1873.517 353.967 C 1876.587 348.030, 1877.558 347.896, 1915.419 348.213 C 1954.062 348.536, 1952.929 348.308, 1955.043 356.159 L 1956.077 360 1971.539 360 L 1987 360 1987 354.538 C 1987 347.537, 1983.750 338.835, 1979.291 333.900 C 1975.345 329.533, 1967.958 325.746, 1960.201 324.115 C 1952.198 322.431, 1875.369 322.753, 1867.317 324.503 M 826.123 350.002 C 821.375 351.123, 817.829 353.981, 815.500 358.565 C 813.703 362.100, 813.465 364.886, 813.157 386 C 812.752 413.736, 813.440 418.423, 818.579 422.935 C 820.481 424.605, 823.266 426.315, 824.768 426.736 C 826.271 427.156, 841.900 427.500, 859.500 427.500 C 889.896 427.500, 891.697 427.397, 895.435 425.435 C 902.728 421.610, 903.450 418.824, 903.836 393.025 C 904.207 368.161, 903.297 360.447, 899.384 355.281 C 895.119 349.650, 890.672 348.986, 858.068 349.102 C 842.356 349.159, 827.980 349.564, 826.123 350.002 M 1515.534 350.435 C 1509.876 351.991, 1506.586 355.229, 1505.052 360.752 C 1503.599 365.986, 1503.673 412.727, 1505.142 417.101 C 1506.652 421.599, 1508.757 423.942, 1513 425.850 C 1515.836 427.126, 1521.745 427.497, 1544.158 427.805 C 1573.515 428.208, 1583.670 427.371, 1587.968 424.192 C 1593.258 420.281, 1593.500 418.741, 1593.500 389 C 1593.500 363.151, 1593.376 361.264, 1591.435 357.565 C 1590.154 355.122, 1587.878 352.846, 1585.435 351.565 C 1581.739 349.625, 1579.649 349.487, 1551 349.285 C 1527.764 349.121, 1519.317 349.395, 1515.534 350.435" stroke="none" fill="#f45c24" fill-rule="evenodd"/></svg>